<?xml version="1.0" encoding="UTF-8"?><svg id="logo" xmlns="http://www.w3.org/2000/svg" viewBox="0 0 700 361.49"><defs><style>.cls-1{fill:#fff;stroke-width:0px;}</style></defs><path class="cls-1" d="M386.82,112.44c24.96-3.04,40.59,84.34,10.93,93.48-69.73,21.43-36.04-90.48-10.93-93.48Z"/><path class="cls-1" d="M311.56,139.15c25.08-2.92,52.31,86.2,3.64,93.48-58.35,8.65-26.59-90.82-3.64-93.48Z"/><path class="cls-1" d="M451.17,174.36c27.2-5.27,47.01,89.76,2.43,92.27-59.6,3.3-24.81-87.98-2.43-92.27Z"/><path class="cls-1" d="M258.14,214.42c24.4-6.07,61.73,83.99,10.93,91.05-45.49,6.3-31-86.08-10.93-91.05Z"/><path class="cls-1" d="M381.97,237.49c20.22-1.93,25,23.79,32.78,35.21,17.15,25.15,39.53,32.74,25.49,64.34-3.3,7.36-7.7,15.06-15.78,16.99-13.2,3.12-22.08-2.69-27.92-7.28-7.89,11.12-19.31,17.52-37.64,12.14-2.01-.6-5.35-6.86-7.28-7.28-9.22-2.05-17.45,8.54-25.49,9.71-17.49,2.5-35.17-23.14-31.57-40.06,1.33-6.34,8.99-15.4,10.93-21.85,2.16-7.44-.3-9.94,2.43-18.21,5.73-17.57,7.66-42.19,36.42-36.42,3.91.76,9.03,5.31,16.99,3.64,6.94-1.48,11.95-10.13,20.64-10.92Z"/><path class="cls-1" d="M131.78,255.89l9.62-28.53L3.65,237.07l-3.65,9.27,103.63,93.81,8.85-25.2-16.26-15.94,12.68-40.5,22.88-2.62ZM85.11,289.94l-32.3-27.85,43.34-2.98-11.04,30.83Z"/><path class="cls-1" d="M145.36,222.44l-70.37-57.63,15.75-19.1,6.72,4.71s-3.37-8.73,7.69-28.16c4.84-8.51,23.45-20.77,43.22-5.36,20.35,15.87,49.93,41.22,49.93,41.22l-15.08,19.1-45.92-36.2s-7.23-5.48-18.09,5.37c-7.71,7.71-4.02,19.1-2.01,20.1s43.89,35.85,43.89,35.85l-15.75,20.1Z"/><path class="cls-1" d="M228.12,143.74s-9.05,4.02-19.77.67c-10.72-3.35-15.41-10.39-16.42-11.39s-25.8-34.85-25.8-34.85l-5.7,4.7-11.06-14.08,7.04-6.03-17.42-23.8,19.43-16.41,19.44,25.81,10.04-7.38,10.06,13.74-9.73,8.38s12.06,18.09,23.12,30.83c4.42,5.09,14.37,4.85,20.78,5.03l-4.03,24.8Z"/><path class="cls-1" d="M246.91,129.01L203.02,9.38,228.15,0l14.74,40.21s17.94-16.34,20.77-17.76c2.18-1.09,15.75-3.69,22.79-1.68s14.74,9.05,18.76,20.78,21.11,59.64,21.11,59.64l-24.13,8.71-19.43-53.28s-5.74-8.06-9.05-8.38c-3-.29-11.9,3.26-15.08,6.03-2.88,2.51-7.71,9.72-7.71,9.72l20.77,55.96-24.8,9.05Z"/><path class="cls-1" d="M336.38,102.54l-2-90.48,24.8-1,.33,8.38s12.79-10.2,16.43-11.07c4.84-1.16,19.43-.66,19.43-.66l.66,29.49s-8.71-4.02-14.07-4.02-18.43,2.69-21.11,8.72l1.34,60.64h-25.8Z"/><path class="cls-1" d="M473.06,23.14c-5.66-3.83-45.27-14.45-64,22.12-4.93,9.62-17.75,42,15.58,63.95,13.94,9.18,46.25,17.02,66.49-15,7.86-12.44,21.65-44.19-18.08-71.06ZM470.04,77.42c-2.78,5.55-9.75,26.12-29.49,15.08-19.77-11.06-7.03-35.85-7.03-35.85,7.04-12.73,14.4-21.11,30.15-13.07,15.75,8.04,7.71,31.16,6.37,33.84Z"/><path class="cls-1" d="M653.41,157.39c-2.2-6.47-27.38-38.84-64.38-20.98-9.74,4.7-39.5,22.78-26.16,60.4,5.58,15.73,26.61,41.48,62.08,28.16,13.77-5.17,43.93-22.17,28.46-67.57ZM618.25,198.86c-5.56,2.75-23.53,14.94-32.61-5.77-9.09-20.75,16.03-32.83,16.03-32.83,13.29-5.91,24.22-8.14,31.93,7.77,7.71,15.92-12.66,29.5-15.35,30.83Z"/><path class="cls-1" d="M595.81,244.83l89.22-17.7,4.74,24.3-7.9,2.2s8.88,2.95,16.86,23.84c3.49,9.14,1.13,31.31-23.33,36.78-25.18,5.63-63.56,12.36-63.56,12.36l-5.17-23.78,57.14-12.45s8.83-2.1,7.35-17.38c-1.05-10.85-12.19-15.24-14.25-14.33-2.05.91-55.58,11.11-55.58,11.11l-5.51-24.94Z"/><path class="cls-1" d="M593.67,94.17l-16.59,22.41s-3.18-7.33-5.19-10.01-11.06-12.73-17.42-13.4-14.41-2.35-24.13,10.39c-9.72,12.73-5.36,24.13.33,31.16s15.41,9.38,20.44,10.05,8.04,1.34,8.04,1.34l-12.73,17.42s-6.37,1.01-10.05-.33-18.43-6.03-28.82-18.43c-10.39-12.4-16.42-32.17,1.34-56.96,14.3-19.96,40.3-20.9,42.56-20.78,6.03.34,22.12,5.36,35.18,20.1l7.04,7.04Z"/><path class="cls-1" d="M688.76,338.79c1.87,0,3.69.48,5.46,1.44,1.78.96,3.16,2.33,4.15,4.11.99,1.78,1.49,3.64,1.49,5.57s-.49,3.75-1.46,5.52c-.98,1.77-2.35,3.14-4.11,4.12-1.76.98-3.6,1.46-5.53,1.46s-3.77-.49-5.53-1.46c-1.76-.98-3.13-2.35-4.12-4.12-.98-1.77-1.47-3.61-1.47-5.52s.5-3.79,1.5-5.57c1-1.78,2.38-3.15,4.16-4.11,1.78-.96,3.6-1.44,5.46-1.44ZM688.76,340.63c-1.56,0-3.08.4-4.56,1.2-1.48.8-2.63,1.94-3.47,3.43-.83,1.49-1.25,3.04-1.25,4.65s.41,3.13,1.23,4.6c.82,1.47,1.97,2.61,3.44,3.43,1.47.82,3.01,1.23,4.61,1.23s3.14-.41,4.61-1.23c1.47-.82,2.62-1.96,3.43-3.43.81-1.47,1.22-3,1.22-4.6s-.42-3.16-1.24-4.65c-.83-1.49-1.99-2.63-3.47-3.43-1.48-.8-3-1.2-4.55-1.2ZM683.89,356.05v-11.96h4.11c1.4,0,2.42.11,3.05.33.63.22,1.13.61,1.5,1.16.37.55.56,1.13.56,1.75,0,.87-.31,1.63-.94,2.28-.62.65-1.45,1.01-2.48,1.09.42.18.76.39,1.02.63.48.47,1.07,1.26,1.77,2.37l1.46,2.34h-2.36l-1.06-1.88c-.83-1.48-1.51-2.41-2.02-2.78-.35-.27-.87-.41-1.55-.41h-1.13v5.08h-1.93ZM685.82,349.32h2.34c1.12,0,1.88-.17,2.29-.5.41-.33.61-.78.61-1.33,0-.35-.1-.67-.29-.95-.2-.28-.47-.49-.82-.63-.35-.14-.99-.21-1.94-.21h-2.19v3.61Z"/></svg>