<?xml version="1.0" encoding="UTF-8"?><svg id="logo" xmlns="http://www.w3.org/2000/svg" viewBox="0 0 700 362"><defs><style>.cls-1{fill:#fff;stroke-width:0px;}</style></defs><path class="cls-1" d="M105,116.85h-13.22l-15.75-39.61H28.78l-15.75,39.61H0L46.47,1.81h11.86l46.67,115.04ZM31.89,67.71h41.03l-20.42-51.6-20.61,51.6Z"/><path class="cls-1" d="M187.46,39.85c7.13,4.55,10.69,11.59,10.69,21.12v55.88h-12.25v-55.38c0-6.79-2.43-11.83-7.29-15.12-4.86-3.29-11.31-4.93-19.35-4.93-4.15,0-8.36.41-12.64,1.23-4.28.82-8.17,1.95-11.67,3.37v70.83h-12.25V34.51h9.92l.19,4.27c8.29-3.72,17.63-5.59,28-5.59,10.63-.11,19.51,2.11,26.64,6.66Z"/><path class="cls-1" d="M230.81,34.51h25.67v8.71h-25.67v41.09c0,13.15,6.16,21.31,18.47,24.49,4.28.99,8.75,1.31,13.42.99v8.71c-5.19.22-10.11-.11-14.78-.99-8.94-1.53-16.08-4.93-21.39-10.19-5.32-5.26-7.97-12.43-7.97-21.53V14.63h12.25v19.89Z"/><path class="cls-1" d="M292.17,37.96c7.65-3.18,16.4-4.77,26.25-4.77,10.63,0,19.44,2.22,26.45,6.66s10.5,11.48,10.5,21.12v55.88h-12.25v-55.38c0-6.9-2.37-11.97-7.1-15.2-4.73-3.23-11.12-4.85-19.15-4.85-8.82,0-17.05,1.54-24.69,4.6v70.83h-12.25V1.81h12.25v36.16Z"/><path class="cls-1" d="M427.23,34.02l-.58,8.71c-4.93-1.09-9.21-1.48-12.83-1.15-8.3.22-14.62,2.36-18.96,6.41-4.34,4.05-6.51,9.92-6.51,17.58v51.28h-12.25V34.02h9.92l.39,12c5.7-8.76,15.62-13.15,29.75-13.15,4.28,0,7.97.39,11.08,1.15Z"/><path class="cls-1" d="M502.89,41.58c6.61,5.92,9.92,13.92,9.92,23.99v20.38c0,9.1-3.11,16.76-9.33,23.01-6.22,6.25-15.69,9.37-28.39,9.37s-22.43-3.12-28.78-9.37c-6.35-6.25-9.53-13.91-9.53-23.01v-20.38c0-10.41,3.27-18.46,9.82-24.16,6.54-5.7,16.04-8.55,28.49-8.55,11.93-.11,21.2,2.79,27.81,8.71ZM455.64,47.5c-4.41,4.05-6.61,10.08-6.61,18.08v20.38c0,6.79,2.17,12.46,6.51,17.01,4.34,4.55,10.86,6.82,19.54,6.82s14.94-2.27,19.15-6.82c4.21-4.54,6.32-10.21,6.32-17.01v-20.38c0-7.56-2.24-13.48-6.71-17.75-4.47-4.27-10.73-6.41-18.76-6.41-8.56,0-15.04,2.03-19.44,6.08Z"/><path class="cls-1" d="M596.71,6.74c7.19,4.49,10.79,11.5,10.79,21.04v29.09c0,9.97-3.44,17.17-10.31,21.61-6.87,4.44-15.49,6.66-25.86,6.66-4.54,0-9.21-.41-14-1.23-4.8-.82-9.14-1.94-13.03-3.37v36.32h-12.25V1.48h9.92l.19,4.27c7.91-3.83,17.18-5.75,27.81-5.75s19.54,2.25,26.74,6.74ZM544.31,12.98v59.66c3.11,1.21,6.93,2.19,11.47,2.96,4.54.77,9.01,1.15,13.42,1.15,17.37,0,26.06-6.79,26.06-20.38v-28.76c0-6.46-2.46-11.28-7.39-14.46-4.93-3.18-11.41-4.77-19.44-4.77-8.56,0-16.6,1.54-24.11,4.6Z"/><path class="cls-1" d="M690.08,41.58c6.61,5.92,9.92,13.92,9.92,23.99v20.38c0,9.1-3.11,16.76-9.33,23.01-6.22,6.25-15.69,9.37-28.39,9.37s-22.43-3.12-28.78-9.37c-6.35-6.25-9.53-13.91-9.53-23.01v-20.38c0-10.41,3.27-18.46,9.82-24.16,6.54-5.7,16.04-8.55,28.49-8.55,11.93-.11,21.2,2.79,27.81,8.71ZM642.83,47.5c-4.41,4.05-6.61,10.08-6.61,18.08v20.38c0,6.79,2.17,12.46,6.51,17.01,4.34,4.55,10.86,6.82,19.54,6.82s14.94-2.27,19.15-6.82c4.21-4.54,6.32-10.21,6.32-17.01v-20.38c0-7.56-2.24-13.48-6.71-17.75-4.47-4.27-10.73-6.41-18.76-6.41-8.56,0-15.04,2.03-19.44,6.08Z"/><path class="cls-1" d="M621.9,192.25c1.76,0,3.17-.62,4.22-1.86,1.05-1.24,1.57-2.74,1.57-4.52,0-1.89-.53-3.39-1.57-4.52-1.05-1.12-2.45-1.68-4.22-1.68-1.65,0-3.06.56-4.22,1.68-1.16,1.12-1.74,2.63-1.74,4.52s.55,3.43,1.65,4.6c1.1,1.18,2.53,1.77,4.3,1.77Z"/><path class="cls-1" d="M293.51,222.97c-5.02-5.25-11.38-7.82-19.1-7.7-4.41,0-8.6.77-12.56,2.3-3.97,1.53-8.38,3.84-13.23,6.91-2.21-2.95-5.32-5.22-9.34-6.82-4.02-1.59-8.51-2.39-13.47-2.39-7.83,0-15.32,1.95-22.48,5.84l-.17-4.43h-8.43v109.54h10.42v-97.15c2.65-1.42,5.7-2.57,9.18-3.45,3.47-.88,6.97-1.33,10.5-1.33,5.62,0,10.08,1.42,13.39,4.25,3.31,2.83,4.96,7.32,4.96,13.46v84.22h10.25v-79.26c0-8.38-.5-13.63-1.49-15.76,5.73-2.95,9.89-4.84,12.48-5.67,2.59-.82,5.43-1.24,8.51-1.24,5.51,0,9.84,1.8,12.98,5.4,3.14,3.6,4.71,9.06,4.71,16.38v80.15h10.42v-81.04c0-9.56-2.51-16.97-7.52-22.22Z"/><path class="cls-1" d="M372.56,224.3c-5.62-6.37-13.5-9.5-23.64-9.39-10.58,0-18.66,3.07-24.22,9.21-5.57,6.14-8.35,14.82-8.35,26.03v42.79c0,9.8,2.7,18.06,8.1,24.79,5.4,6.73,13.56,10.09,24.47,10.09s18.85-3.36,24.14-10.09c5.29-6.73,7.93-14.99,7.93-24.79v-42.79c0-10.86-2.81-19.48-8.43-25.85ZM370.58,284.42v8.52c0,7.32-1.79,13.43-5.37,18.33-3.58,4.9-9.01,7.35-16.28,7.35s-12.92-2.45-16.62-7.35c-3.69-4.9-5.54-11.01-5.54-18.33v-42.79c0-8.62,1.87-15.11,5.62-19.48,3.75-4.37,9.26-6.55,16.53-6.55,6.83,0,12.15,2.3,15.95,6.91,3.8,4.6,5.7,10.98,5.7,19.12v34.27Z"/><path class="cls-1" d="M431.04,214.92c-12.01,0-20.45,4.72-25.29,14.17l-.33-12.93h-8.43v110.07h10.42v-76.08c0-8.26,1.84-14.58,5.54-18.95,3.69-4.37,9.06-6.67,16.12-6.91,3.08-.35,6.72.06,10.91,1.24l.5-9.38c-2.65-.82-5.79-1.24-9.42-1.24Z"/><path class="cls-1" d="M508.54,222.53c-6.12-4.84-13.7-7.26-22.73-7.26s-16.92,2.07-23.64,6.2l-.17-4.6h-8.43v145.13h10.42v-39.13c3.31,1.53,7,2.74,11.08,3.63,4.08.89,8.04,1.33,11.9,1.33,8.82,0,16.15-2.39,21.99-7.17,5.84-4.78,8.76-12.54,8.76-23.29v-52.17c0-10.27-3.06-17.82-9.18-22.66ZM507.3,284.42v12.42c0,14.64-7.39,21.96-22.15,21.96-3.75,0-7.55-.41-11.41-1.24-3.86-.82-7.11-1.89-9.75-3.19v-85.11c6.39-3.3,13.23-4.96,20.5-4.96,6.83,0,12.34,1.71,16.53,5.13,4.19,3.42,6.28,8.62,6.28,15.58v39.4Z"/><path class="cls-1" d="M589.53,222.44c-5.95-4.78-13.45-7.17-22.48-7.17-8.38,0-15.82,1.71-22.32,5.13v-38.96h-10.42v144.78h10.42v-97.15c6.5-3.3,13.5-4.96,21-4.96,6.83,0,12.26,1.74,16.28,5.22,4.02,3.48,6.03,8.94,6.03,16.38v80.5h10.42v-81.04c0-10.39-2.98-17.97-8.93-22.75Z"/><polygon class="cls-1" points="616.61 216.69 616.61 263.59 616.61 284.42 616.61 326.23 627.03 326.23 627.03 284.42 627.03 263.59 627.03 216.69 616.61 216.69"/><path class="cls-1" d="M675.04,318.62c-6.61,0-11.9-2.24-15.87-6.73-3.97-4.48-5.95-11.16-5.95-20.01v-40.66c0-8.85,1.98-15.52,5.95-20.01,3.97-4.48,9.26-6.73,15.87-6.73s12.12,2.01,17.19,6.02l7.77-4.43c-6.84-7.32-15.16-10.98-24.96-10.98s-17.64,3.13-23.48,9.39-8.76,15.17-8.76,26.74v40.66c0,11.57,2.92,20.45,8.76,26.65,5.84,6.2,13.67,9.3,23.48,9.3s18.24-3.6,24.96-10.8l-7.77-4.6c-5.18,4.13-10.91,6.2-17.19,6.2Z"/></svg>