<?xml version="1.0" encoding="utf-8"?>
<!-- Generator: Adobe Illustrator 27.8.1, SVG Export Plug-In . SVG Version: 6.00 Build 0)  -->
<svg version="1.2" baseProfile="tiny-ps" xmlns="http://www.w3.org/2000/svg" xmlns:xlink="http://www.w3.org/1999/xlink"
	 viewBox="0 0 768 768" xml:space="preserve">
<title>Anthrocon</title>
<desc>Anthrocon logo</desc>
<g id="background">
	<rect fill="#FFB612" width="768" height="768"/>
</g>
<g id="logo">
	<path d="M146.37,403.93l10.12-29.99l-144.84,10.2l-3.83,9.75l108.96,98.63l9.3-26.49l-17.09-16.76l13.34-42.58L146.37,403.93z
		 M97.29,439.73l-33.97-29.28l45.57-3.13L97.29,439.73z"/>
	<path d="M160.64,368.76l-73.98-60.6l16.56-20.08l7.06,4.95c0,0-3.54-9.18,8.09-29.61c5.09-8.94,24.66-21.84,45.45-5.64
		c21.4,16.68,52.5,43.34,52.5,43.34l-15.85,20.08l-48.28-38.07c0,0-7.61-5.77-19.02,5.64c-8.1,8.1-4.23,20.08-2.11,21.14
		c2.11,1.06,46.15,37.7,46.15,37.7L160.64,368.76z"/>
	<path d="M247.65,286.01c0,0-9.51,4.23-20.79,0.7c-11.27-3.52-16.21-10.92-17.26-11.98c-1.06-1.06-27.13-36.64-27.13-36.64
		l-5.99,4.94l-11.63-14.81l7.41-6.34l-18.32-25.02l20.43-17.25l20.44,27.14l10.56-7.76l10.58,14.45l-10.23,8.81
		c0,0,12.68,19.02,24.31,32.41c4.65,5.35,15.11,5.09,21.85,5.28L247.65,286.01z"/>
	<path d="M267.42,270.52l-46.15-125.77l26.42-9.86l15.5,42.28c0,0,18.87-17.18,21.84-18.67c2.29-1.15,16.56-3.88,23.96-1.76
		c7.4,2.11,15.5,9.51,19.73,21.84c4.23,12.33,22.2,62.71,22.2,62.71l-25.37,9.16l-20.43-56.02c0,0-6.03-8.48-9.51-8.81
		c-3.16-0.3-12.51,3.43-15.85,6.34c-3.03,2.64-8.1,10.22-8.1,10.22l21.84,58.84L267.42,270.52z"/>
	<path d="M361.48,242.7l-2.11-95.13l26.07-1.05l0.34,8.82c0,0,13.45-10.72,17.28-11.64c5.09-1.22,20.43-0.7,20.43-0.7l0.7,31
		c0,0-9.16-4.23-14.8-4.23c-5.64,0-19.38,2.83-22.2,9.17l1.41,63.76H361.48z"/>
	<path d="M505.19,159.21c-5.95-4.02-47.6-15.19-67.29,23.25c-5.18,10.12-18.66,44.16,16.39,67.24c14.65,9.65,48.63,17.9,69.91-15.77
		C532.47,220.85,546.96,187.46,505.19,159.21z M502.02,216.28c-2.92,5.84-10.25,27.46-31,15.85c-20.79-11.63-7.39-37.7-7.39-37.7
		c7.4-13.39,15.14-22.2,31.7-13.74C511.89,189.15,503.43,213.46,502.02,216.28z"/>
	<path d="M694.82,300.37c-2.32-6.8-28.79-40.84-67.69-22.06c-10.24,4.94-41.53,23.95-27.51,63.5c5.86,16.54,27.98,43.62,65.27,29.61
		C679.37,365.98,711.08,348.1,694.82,300.37z M657.85,343.97c-5.85,2.89-24.74,15.71-34.29-6.07
		c-9.56-21.81,16.86-34.52,16.86-34.52c13.98-6.21,25.47-8.56,33.57,8.17C682.09,328.29,660.68,342.57,657.85,343.97z"/>
	<path d="M634.26,392.31l93.8-18.61l4.98,25.55l-8.31,2.31c0,0,9.33,3.1,17.72,25.06c3.67,9.61,1.19,32.92-24.53,38.67
		c-26.48,5.92-66.83,12.99-66.83,12.99l-5.43-25l60.07-13.09c0,0,9.29-2.21,7.73-18.27c-1.11-11.41-12.82-16.03-14.98-15.07
		c-2.16,0.96-58.44,11.68-58.44,11.68L634.26,392.31z"/>
	<path d="M632.01,233.9l-17.44,23.56c0,0-3.35-7.71-5.46-10.53c-2.11-2.82-11.63-13.39-18.32-14.09
		c-6.69-0.7-15.15-2.47-25.37,10.92c-10.22,13.39-5.64,25.37,0.35,32.76c5.99,7.4,16.21,9.86,21.49,10.57
		c5.28,0.7,8.46,1.41,8.46,1.41l-13.39,18.32c0,0-6.69,1.06-10.57-0.35c-3.88-1.41-19.38-6.34-30.3-19.38
		c-10.92-13.04-17.26-33.82,1.41-59.89c15.03-20.99,42.37-21.98,44.74-21.84c6.34,0.35,23.25,5.64,36.99,21.14L632.01,233.9z"/>
	<path d="M414.52,253.1c26.25-3.19,42.68,88.67,11.49,98.29C352.7,373.93,388.12,256.25,414.52,253.1z"/>
	<path d="M335.38,281.18c26.37-3.07,55.01,90.63,3.83,98.29C277.86,388.57,311.25,283.98,335.38,281.18z"/>
	<path d="M482.18,318.2c28.6-5.55,49.42,94.38,2.55,97.01C422.06,418.69,458.64,322.71,482.18,318.2z"/>
	<path d="M279.22,360.33c25.65-6.38,64.9,88.31,11.49,95.74C242.88,462.68,258.12,365.55,279.22,360.33z"/>
	<path d="M409.42,384.58c21.26-2.03,26.29,25.01,34.46,37.02c18.03,26.45,41.56,34.42,26.8,67.65c-3.47,7.74-8.1,15.83-16.59,17.87
		c-13.88,3.28-23.21-2.83-29.36-7.66c-8.3,11.69-20.3,18.43-39.57,12.76c-2.11-0.64-5.62-7.22-7.66-7.66
		c-9.69-2.15-18.35,8.98-26.81,10.21c-18.39,2.63-36.98-24.33-33.19-42.12c1.4-6.66,9.45-16.2,11.49-22.98
		c2.27-7.82-0.32-10.45,2.55-19.15c6.02-18.47,8.06-44.36,38.29-38.29c4.11,0.8,9.49,5.58,17.87,3.83
		C395.02,394.51,400.28,385.42,409.42,384.58z"/>
	<path d="M742.1,496.92c-1.04-1.87-2.5-3.31-4.37-4.32c-1.87-1.01-3.78-1.51-5.74-1.51c-1.96,0-3.88,0.5-5.74,1.51
		c-1.87,1.01-3.33,2.45-4.37,4.32c-1.05,1.87-1.57,3.83-1.57,5.86c0,2.01,0.52,3.95,1.55,5.81c1.03,1.86,2.47,3.3,4.33,4.33
		c1.85,1.03,3.79,1.54,5.81,1.54c2.02,0,3.96-0.51,5.81-1.54c1.85-1.03,3.29-2.47,4.32-4.33c1.03-1.86,1.54-3.79,1.54-5.81
		C743.66,500.75,743.14,498.79,742.1,496.92z M740.44,507.62c-0.86,1.54-2.06,2.75-3.61,3.61c-1.55,0.86-3.16,1.29-4.85,1.29
		s-3.3-0.43-4.85-1.29c-1.55-0.86-2.75-2.06-3.62-3.61c-0.86-1.54-1.29-3.16-1.29-4.84c0-1.69,0.44-3.32,1.32-4.88
		c0.88-1.56,2.09-2.77,3.65-3.61c1.55-0.84,3.15-1.26,4.79-1.26c1.63,0,3.23,0.42,4.78,1.26c1.56,0.84,2.77,2.04,3.65,3.61
		c0.87,1.56,1.31,3.19,1.31,4.88C741.73,504.46,741.3,506.08,740.44,507.62z"/>
	<path d="M734.03,504.28c-0.27-0.26-0.62-0.48-1.07-0.67c1.08-0.08,1.95-0.46,2.61-1.15c0.66-0.68,0.98-1.48,0.98-2.4
		c0-0.65-0.2-1.26-0.59-1.84c-0.39-0.58-0.92-0.98-1.58-1.22c-0.66-0.23-1.73-0.35-3.2-0.35h-4.32v12.57h2.03v-5.34h1.19
		c0.71,0,1.25,0.14,1.63,0.43c0.54,0.39,1.24,1.37,2.12,2.93l1.11,1.98h2.48l-1.53-2.46C735.16,505.61,734.54,504.78,734.03,504.28z
		 M731.35,502.16h-2.46v-3.79h2.31c0.99,0,1.67,0.07,2.04,0.22c0.37,0.14,0.65,0.36,0.86,0.66c0.21,0.3,0.31,0.63,0.31,1
		c0,0.58-0.21,1.04-0.64,1.39C733.33,501.99,732.53,502.16,731.35,502.16z"/>
</g>
</svg>
